<?xml version="1.0" encoding="utf-8"?>
<!-- Generator: Adobe Illustrator 22.1.0, SVG Export Plug-In . SVG Version: 6.00 Build 0)  -->
<svg version="1.1" id="图层_1" xmlns="http://www.w3.org/2000/svg" xmlns:xlink="http://www.w3.org/1999/xlink" x="0px" y="0px"
	 viewBox="0 0 552 413" style="enable-background:new 0 0 552 413;" xml:space="preserve">
<style type="text/css">
	.st0{fill:#FFFFFF;}
</style>
<title>Combined Shape</title>
<desc>Created with Sketch.</desc>
<g id="Page-1" stroke="none" stroke-width="1" fill="none" fill-rule="evenodd">
	<path id="Combined-Shape" class="st0" d="M0,0h552v413H0V0z M190.7,259h-24.4v42h-41.9v-42H37.9v-29.8l88.9-130.9h39.5v127.4h24.4
		V259z M384.7,199.6c0,35.4-5.8,61.6-17.5,78.6c-11.7,17-29.7,25.5-53.9,25.5c-23.6,0-41.3-8.8-53.2-26.3
		c-12-17.5-17.9-43.5-17.9-77.8c0-35.8,5.8-62.1,17.4-79.1c11.6-17,29.6-25.4,53.7-25.4c23.6,0,41.4,8.9,53.3,26.6
		C378.6,139.4,384.7,165.4,384.7,199.6z M490.5,259v42h-41.9v-42L451,98.3h39.5v127.4V259z"/>
</g>
</svg>
