<?xml version="1.0" standalone="no"?>
<!DOCTYPE svg PUBLIC "-//W3C//DTD SVG 20010904//EN"
 "http://www.w3.org/TR/2001/REC-SVG-20010904/DTD/svg10.dtd">
<svg version="1.0" xmlns="http://www.w3.org/2000/svg"
 width="2300.000000pt" height="1721.000000pt" viewBox="0 0 2300.000000 1721.000000"
 preserveAspectRatio="xMidYMid meet">

<g transform="translate(0.000000,1721.000000) scale(0.100000,-0.100000)"
fill="#000000" stroke="none">
<path d="M11215 13233 c-453 -38 -842 -150 -1162 -333 -860 -494 -1328 -1492
-1457 -3110 -74 -918 -27 -1912 125 -2647 288 -1394 958 -2228 2003 -2493 275
-70 414 -85 781 -85 254 0 348 4 455 18 634 86 1095 301 1485 692 413 413 699
1023 859 1835 202 1021 204 2475 6 3470 -170 849 -476 1496 -920 1941 -63 64
-151 144 -195 179 -373 295 -821 471 -1337 525 -133 13 -520 19 -643 8z"/>
<path d="M3433 10381 l-1853 -2729 0 -616 0 -616 1805 0 1805 0 0 -875 0 -875
865 0 865 0 0 875 0 875 510 0 510 0 0 690 0 690 -510 0 -510 0 0 2655 0 2655
-817 0 -818 0 -1852 -2729z"/>
</g>
</svg>
